<?xml version="1.0" standalone="no"?>
<!DOCTYPE svg PUBLIC "-//W3C//DTD SVG 20010904//EN"
 "http://www.w3.org/TR/2001/REC-SVG-20010904/DTD/svg10.dtd">
<svg version="1.0" xmlns="http://www.w3.org/2000/svg"
 width="270.000000pt" height="270.000000pt" viewBox="0 0 270.000000 270.000000"
 preserveAspectRatio="xMidYMid meet">

<g transform="translate(0.000000,270.000000) scale(0.100000,-0.100000)"
fill="#000000" stroke="none">
<path d="M990 2412 c-40 -59 -105 -154 -145 -212 -39 -58 -101 -148 -137 -200
-36 -52 -99 -144 -139 -205 -125 -184 -230 -337 -276 -402 l-45 -63 269 0 268
0 82 123 c45 67 104 154 130 192 27 39 93 135 147 215 55 80 119 173 144 208
l44 63 -28 45 c-58 89 -226 334 -234 339 -4 2 -40 -44 -80 -103z"/>
<path d="M1397 1848 c-46 -69 -177 -261 -233 -343 -7 -11 -45 -67 -83 -124
-39 -57 -78 -113 -88 -125 -10 -12 -24 -33 -32 -48 -7 -15 -28 -42 -45 -61
-17 -19 -53 -67 -81 -108 -27 -40 -81 -118 -118 -173 -37 -55 -64 -103 -59
-108 5 -5 125 -7 268 -6 l259 3 50 75 c28 41 117 170 197 287 81 116 153 223
160 236 7 13 23 37 35 53 35 45 93 135 93 144 0 15 -250 380 -260 380 -4 0
-32 -37 -63 -82z"/>
<path d="M1760 1215 c-52 -80 -98 -145 -102 -145 -5 0 -8 -5 -8 -10 0 -13
-303 -453 -340 -495 -15 -16 -71 -95 -125 -175 -54 -80 -109 -160 -123 -177
l-24 -33 273 0 274 0 32 48 c18 26 66 97 108 157 41 61 109 160 151 220 41 61
125 182 185 270 61 88 118 173 127 189 10 15 34 49 55 74 20 26 37 50 37 55 0
4 25 43 56 87 l56 80 -269 0 -268 -1 -95 -144z"/>
</g>
</svg>
